<svg id="Airplane" xmlns="http://www.w3.org/2000/svg" viewBox="0 0 479 239.76"><title>Airplane</title><path d="M239.5,111.78a40,40,0,0,0-39.92,39.92,8,8,0,0,0,8,8h63.88a8,8,0,0,0,8-8A40,40,0,0,0,239.5,111.78Zm-22.59,31.94a24,24,0,0,1,45.18,0Zm254.14,23.95H311c.25-2.62.37-5.29.37-8a81.49,81.49,0,0,0-21.67-55.89h61.59a8,8,0,1,0,0-16H271.44a7.79,7.79,0,0,0-2.57.52A67,67,0,0,0,247.49,82V8a8,8,0,0,0-16,0V82a66.64,66.64,0,0,0-21.38,6.39,8.16,8.16,0,0,0-2.58-.51H127.72a8,8,0,0,0,0,16h61.59a81.49,81.49,0,0,0-21.67,55.89c0,2.69.13,5.36.38,8H8a8,8,0,0,0-1.59,15.8L85.73,200a24,24,0,1,0,40.82,8.51L198,223.44a66.71,66.71,0,0,0,83.1-.05l71.38-14.88a23.95,23.95,0,1,0,40.82-8.5l79.37-16.54a8,8,0,0,0-1.6-15.8ZM103.77,223.56a8,8,0,1,1,8-8A8,8,0,0,1,103.77,223.56Zm271.46,0a8,8,0,1,1,8-8A8,8,0,0,1,375.23,223.56ZM171.12,183.64a80.87,80.87,0,0,0,8.78,19.72L85.35,183.64ZM239.5,222c-30.82,0-55.89-27.95-55.89-62.28s25.07-62.28,55.89-62.28,55.89,28,55.89,62.28S270.32,222,239.5,222Zm59.61-18.65a81.15,81.15,0,0,0,8.78-19.68H393.6Z"/></svg>