<svg id="Bicycle" xmlns="http://www.w3.org/2000/svg" viewBox="0 0 480.01 272"><title>Bicycle</title><path d="M392,96a87.57,87.57,0,0,0-25.77,3.87L327.41,5A8,8,0,0,0,320,0H272a8,8,0,0,0,0,16h42.63l9.29,22.71L198,127.6,164.59,56H192a8,8,0,0,0,0-16H128a8,8,0,1,0,0,16H139.1l-22.4,44.86A88,88,0,1,0,174.51,200H192a7.81,7.81,0,0,0,1.07-.22,31.76,31.76,0,0,0,37.59,23.49l6.58,13.14-8.84,4.42a8,8,0,0,0,7.15,14.32l32-16a8,8,0,1,0-7.15-14.32l-8.84,4.43L245,216a31.35,31.35,0,0,0,6.52-40.14l91.18-91.18L351.41,106A87.86,87.86,0,1,0,392,96Zm-303.94,160a72,72,0,1,1,21.42-140.71L72.89,188.39A8,8,0,0,0,80.05,200h78.13A72.06,72.06,0,0,1,88.05,255.94ZM124.1,121.75A72,72,0,0,1,160,184H93ZM176,184a88,88,0,0,0-44.79-76.54l20.55-41,48.62,104.18a31.81,31.81,0,0,0-7.31,13.6A9.63,9.63,0,0,0,192,184Zm55.19,4.43a8,8,0,1,0-14.32,7.15l6.17,12.31a15.95,15.95,0,1,1,14.33-7.1Zm9-23.89A30.41,30.41,0,0,0,214,161.75l-9.1-19.38L330.14,54l6,14.63ZM392,255.94a72,72,0,0,1-34.48-135.17L384.58,187a8,8,0,0,0,14.82-6.06l-27.07-66.13A72,72,0,1,1,392,255.94Z"/></svg>