<svg id="Boat" xmlns="http://www.w3.org/2000/svg" viewBox="0 0 480 336.01"><title>Boat</title><path d="M472,320a44.53,44.53,0,0,1-25.16-7,64.59,64.59,0,0,0-65.75,0,48.61,48.61,0,0,1-50.28,0,64.57,64.57,0,0,0-65.74,0,48.6,48.6,0,0,1-50.27,0,59.83,59.83,0,0,0-32.87-9,60,60,0,0,0-32.85,9A44.41,44.41,0,0,1,124,320a44.49,44.49,0,0,1-25.12-7A59.86,59.86,0,0,0,66,304a60,60,0,0,0-32.85,9A44.41,44.41,0,0,1,8,320a8,8,0,0,0,0,16,59.83,59.83,0,0,0,32.86-9A44.45,44.45,0,0,1,66,320a44.43,44.43,0,0,1,25.13,7A59.9,59.9,0,0,0,124,336a60,60,0,0,0,32.85-9,44.42,44.42,0,0,1,25.13-7,44.47,44.47,0,0,1,25.14,7,64.55,64.55,0,0,0,65.73,0,48.57,48.57,0,0,1,50.28,0,64.55,64.55,0,0,0,65.73,0,48.64,48.64,0,0,1,50.32,0A60,60,0,0,0,472,336a8,8,0,0,0,0-16ZM0,296a8,8,0,0,0,8,8,59.41,59.41,0,0,0,32.8-9A44.84,44.84,0,0,1,66,288a44.83,44.83,0,0,1,25.24,7.08A59.8,59.8,0,0,0,123.92,304a60.24,60.24,0,0,0,32.93-9,44,44,0,0,1,25.07-7,44.93,44.93,0,0,1,25.32,7.08,64.51,64.51,0,0,0,65.59-.09,44.05,44.05,0,0,1,25.09-7,44.93,44.93,0,0,1,25.32,7.08,64.48,64.48,0,0,0,65.59-.07A44.82,44.82,0,0,1,414,288c1.74,0,3.34.07,4.95.22a44.38,44.38,0,0,1,20.16,6.8A60,60,0,0,0,472,304a8,8,0,0,0,0-16,44.58,44.58,0,0,1-25.17-7,69.17,69.17,0,0,0-15.58-6.79l48-102.82A8,8,0,0,0,472,160H429L367.2,36.43A8,8,0,0,0,360,32H190.24L183.76,6.07A8,8,0,0,0,176,0H144a8,8,0,0,0-7.76,9.94L141.76,32H118.24L111.76,6.07A8,8,0,0,0,104,0H72a8,8,0,0,0-7.76,9.94L69.76,32H48a8,8,0,0,0-8,8V160H8a8,8,0,0,0-7.84,9.6l23.2,116.09A44.73,44.73,0,0,1,8,288,8,8,0,0,0,0,296ZM154.25,16h15.51l4,16H158.25Zm-72,0H97.76l4,16H86.25ZM56,48H355.06l24,48H56Zm0,64H384a8,8,0,0,0,2.78-.56L411.06,160H56Zm403.44,64-44.8,96H414a60.24,60.24,0,0,0-32.89,9,48.61,48.61,0,0,1-50.4-.07,64.52,64.52,0,0,0-65.6.07,48.61,48.61,0,0,1-50.4-.07A59.94,59.94,0,0,0,181.92,272a59.35,59.35,0,0,0-32.8,9,44.82,44.82,0,0,1-25.2,7,44.69,44.69,0,0,1-25.22-7.08A59.86,59.86,0,0,0,66,272c-1.89,0-3.64.08-5.33.19-.54,0-1,.1-1.6.15-1.15.1-2.26.22-3.31.38l-1.55.23c-1.05.19-2.06.39-3,.61l-1.17.26c-1.29.32-2.53.68-3.7,1.06l-.75.27c-.93.32-1.82.65-2.68,1l-1.08.45-2.19,1-.9.43-.54.25L17.76,176ZM88,240a24,24,0,1,0-24-24A24,24,0,0,0,88,240Zm0-32a8,8,0,1,1-8,8A8,8,0,0,1,88,208Zm72,32a24,24,0,1,0-24-24A24,24,0,0,0,160,240Zm0-32a8,8,0,1,1-8,8A8,8,0,0,1,160,208Zm72,32a24,24,0,1,0-24-24A24,24,0,0,0,232,240Zm0-32a8,8,0,1,1-8,8A8,8,0,0,1,232,208Zm72,32a24,24,0,1,0-24-24A24,24,0,0,0,304,240Zm0-32a8,8,0,1,1-8,8A8,8,0,0,1,304,208Zm72,32a24,24,0,1,0-24-24A24,24,0,0,0,376,240Zm0-32a8,8,0,1,1-8,8A8,8,0,0,1,376,208ZM88,64H80a8,8,0,0,0,0,16h8a8,8,0,0,0,0-16Zm40,0h-8a8,8,0,0,0,0,16h8a8,8,0,0,0,0-16Zm40,0h-8a8,8,0,0,0,0,16h8a8,8,0,0,0,0-16Zm40,0h-8a8,8,0,0,0,0,16h8a8,8,0,0,0,0-16Zm40,0h-8a8,8,0,0,0,0,16h8a8,8,0,0,0,0-16Zm40,0h-8a8,8,0,0,0,0,16h8a8,8,0,0,0,0-16Zm40,0h-8a8,8,0,0,0,0,16h8a8,8,0,0,0,0-16ZM88,128H80a8,8,0,0,0,0,16h8a8,8,0,0,0,0-16Zm40,0h-8a8,8,0,0,0,0,16h8a8,8,0,0,0,0-16Zm40,0h-8a8,8,0,0,0,0,16h8a8,8,0,0,0,0-16Zm40,0h-8a8,8,0,0,0,0,16h8a8,8,0,0,0,0-16Zm40,0h-8a8,8,0,0,0,0,16h8a8,8,0,0,0,0-16Zm40,0h-8a8,8,0,0,0,0,16h8a8,8,0,0,0,0-16Zm40,0h-8a8,8,0,0,0,0,16h8a8,8,0,0,0,0-16Zm40,0h-8a8,8,0,0,0,0,16h8a8,8,0,0,0,0-16Z"/></svg>