<svg id="Bus" xmlns="http://www.w3.org/2000/svg" viewBox="0 0 480 224.04"><title>Bus</title><path d="M476.41,86.4,451.67,31.89A54.73,54.73,0,0,0,402.08,0H47.44A47.49,47.49,0,0,0,0,47.44V166a26,26,0,0,0,26,26H64.8a40,40,0,0,0,78.4,0H336.8a40,40,0,0,0,78.4,0h42.56A22.26,22.26,0,0,0,480,169.76V103A39.93,39.93,0,0,0,476.41,86.4Zm-17.35.52L384,80.64V47l53.94-6.74ZM104,208a24,24,0,1,1,24-24A24,24,0,0,1,104,208Zm272,0a24,24,0,1,1,24-24A24,24,0,0,1,376,208Zm81.76-32H415.2a40,40,0,0,0-78.4,0H143.2a40,40,0,0,0-78.4,0H26a10,10,0,0,1-10-10V47.44A31.47,31.47,0,0,1,47.44,16H402.08a38.58,38.58,0,0,1,25.29,9.52L375.5,32H64a8,8,0,0,0-8,8V88a8,8,0,0,0,8,8H375.66L464,103.36v66.4A6.25,6.25,0,0,1,457.76,176ZM72,80V48h56V80Zm72-32h64V80H144Zm80,0h56V80H224Zm72,0h72V80H296Z"/></svg>