<svg id="Car" xmlns="http://www.w3.org/2000/svg" viewBox="0 0 480 335.97"><title>Car</title><path d="M421.52,128.26C411.49,103.28,379,26.6,355,16.57,353.27,15.9,312.7,0,240,0S126.73,15.9,124.93,16.62c-24,10-56.42,86.66-66.45,111.64C26.48,131.4.77,161.4,0,197.86c-.54,26.55,9.42,65.52,29,85.47A37.53,37.53,0,0,0,56,296h8v32a8,8,0,0,0,8,8h88a8,8,0,0,0,8-8V296H312v32a8,8,0,0,0,8,8h88a8,8,0,0,0,8-8V296h8a37.48,37.48,0,0,0,27-12.68c19.55-20,29.51-58.92,29-85.48C479.23,161.4,453.49,131.4,421.52,128.26ZM152,320H80V296h72Zm248,0H328V296h72Zm39.6-47.88A22.32,22.32,0,0,1,424,280H56a22.34,22.34,0,0,1-15.61-7.89c-14.23-14.51-24.95-47-24.39-73.94C16.64,168.28,38.17,144,64,144a8,8,0,0,0,7.44-5.08C87.56,97.87,116.7,37.38,131,31.43,131.35,31.28,170.69,16,240,16S348.65,31.28,348.91,31.38c14.4,6,43.53,66.49,59.63,107.53A8,8,0,0,0,416,144c25.85,0,47.39,24.29,48,54.16C464.54,225.09,453.82,257.58,439.59,272.09ZM104,144H376a8,8,0,0,0,7.31-11.25L351.42,61C343.39,41,309,32,240,32c-45.53,0-101.82,5-111.3,28.75l-32,72A8,8,0,0,0,104,144Zm39.43-77c2.62-6.57,26.17-19,96.56-19,77.42,0,93.73,11.89,96.68,19.24l27,60.75H116.32ZM80,170c-17.64,0-32,17-32,38s14.35,38,32,38,32-17,32-38S97.66,170,80,170Zm0,60c-8.67,0-16-10.07-16-22s7.32-22,16-22,16,10.08,16,22S88.69,230,80,230Zm320-60c-17.65,0-32,17-32,38s14.35,38,32,38,32-17,32-38S417.63,170,400,170Zm0,60c-8.68,0-16-10.07-16-22s7.32-22,16-22,16,10.08,16,22S408.66,230,400,230Zm-80-50H160a8,8,0,0,0,0,16H320a8,8,0,0,0,0-16Zm-16,40H176a8,8,0,0,0,0,16H304a8,8,0,0,0,0-16Z"/></svg>