<svg id="motorcyle" xmlns="http://www.w3.org/2000/svg" viewBox="0 0 480.01 304"><title>Motorcycle</title><path d="M80,144a80,80,0,1,0,80,80A80,80,0,0,0,80,144Zm0,144a64,64,0,1,1,64-64A64,64,0,0,1,80,288Zm0-96a32,32,0,1,0,32,32A32,32,0,0,0,80,192Zm0,48a16,16,0,1,1,16-16A16,16,0,0,1,80,240Zm320-96a79.53,79.53,0,0,0-27.47,5l-6.92-14.4a96.92,96.92,0,0,1,31.29-6.4c.75,0,1.49-.11,2.25-.12a95.52,95.52,0,0,1,45.6,11,8,8,0,0,0,7.45-14.16,111.25,111.25,0,0,0-51.78-12.81c-.15,0-.27-.08-.42-.08h-.8c-1.43,0-2.84.15-4.27.21A111.34,111.34,0,0,0,358.64,120L345.55,92.75A77.23,77.23,0,0,0,368,96a8,8,0,0,0,8-8V24a8,8,0,0,0-8-8,61.5,61.5,0,0,0-49.32,20.8L303.2,4.54A8,8,0,0,0,296,0H248a8,8,0,0,0,0,16h43l11.52,24H237.18a53.27,53.27,0,0,0-49,32.62A16,16,0,0,0,184,72H56a32,32,0,0,0-32,32,16,16,0,0,0,14.91,15.89,111.2,111.2,0,0,0-27.84,15.82,8,8,0,1,0,9.86,12.61h0A96,96,0,0,1,176,224v10.54a22.4,22.4,0,0,0,4.45,17.2A15.62,15.62,0,0,0,192,256h88a23.48,23.48,0,0,0,24-22.95q0-.53,0-1.05v-8a95.24,95.24,0,0,1,11.44-45.39c.53-1,1.13-1.9,1.69-2.86a96.89,96.89,0,0,1,28.13-30.51c.4-.28.79-.6,1.18-.87.93-.63,1.93-1.16,2.89-1.75.61-.39,1.24-.75,1.87-1.13L358.14,156A79.85,79.85,0,1,0,400,144ZM328,56c0-11.38,14-21.2,32-23.49v47a46.06,46.06,0,0,1-26.27-11.36L328,56.27Zm-90.82,0h69.87l24,48H210.81A10.81,10.81,0,0,1,200,93.19,37.22,37.22,0,0,1,237.18,56ZM56,88H184v16H40A16,16,0,0,1,56,88ZM288,232a7.59,7.59,0,0,1-7.16,8,5.89,5.89,0,0,1-.84,0H192.06c-.13-1.4-.1-3.56-.08-5.26L192,224a111.69,111.69,0,0,0-70.53-104H184a15.92,15.92,0,0,0,11.47-4.89A26.5,26.5,0,0,0,210.81,120H340.88l3.36,7c-.7.41-1.39.85-2.08,1.27-1.6,1-3.2,1.85-4.73,2.87l-.15.12c-2.4,1.61-4.74,3.38-7,5.2A7.71,7.71,0,0,0,328,136H224a24,24,0,0,0-24,24c0,.2,0,.4,0,.6v6.82A24,24,0,0,0,223.4,192h69.32a110.63,110.63,0,0,0-3.44,16H240a8,8,0,0,0,0,16h48Zm13.34-60.93c-.14.24-.3.48-.44.73s-.06.29-.13.43c-.64,1.23-1.21,2.51-1.81,3.77H224a8.14,8.14,0,0,1-8-8.27c0-.1,0-.21,0-.32v-6.82a8.14,8.14,0,0,1,7.68-8.58h90.58a113,113,0,0,0-10.88,15.62C302.71,168.8,302,169.88,301.34,171.07ZM400,288a64,64,0,0,1-34.91-117.6l14.13,29.44a31.14,31.14,0,1,0,14.29-7.2l-14-29.23A64,64,0,1,1,400,288Zm0-80a16,16,0,1,1-16,16,15.82,15.82,0,0,1,3.29-9.6,7.9,7.9,0,0,0,12.64-6.4Z"/></svg>