<svg id="Scooter" xmlns="http://www.w3.org/2000/svg" viewBox="0 0 400 480"><title>Scooter</title><path d="M32,416a32,32,0,1,0,32,32A32,32,0,0,0,32,416Zm0,48a16,16,0,1,1,16-16A16,16,0,0,1,32,464Zm336-48a32,32,0,1,0,32,32A32,32,0,0,0,368,416Zm0,48a16,16,0,1,1,16-16A16,16,0,0,1,368,464Zm8-72V360a8,8,0,0,0-8-8,96,96,0,0,0-17.25,1.6L271.81,6.22A8,8,0,0,0,264,0H208a8,8,0,0,0,0,16h49.6l77.69,341.83a96.43,96.43,0,0,0-54.55,50.32c-.26,0-.48-.15-.76-.15H81.89A63.89,63.89,0,0,0,32,384a8,8,0,0,0,0,16,48.05,48.05,0,0,1,48,48,8,8,0,0,0,8,8H312a8,8,0,0,0,8-8,48.05,48.05,0,0,1,48-48A8,8,0,0,0,376,392ZM95.5,440a63.28,63.28,0,0,0-4.21-16H275.11a95.32,95.32,0,0,0-2.78,16ZM360,384.5A64.14,64.14,0,0,0,304.5,440H288.4A80.15,80.15,0,0,1,360,368.4Z"/></svg>