<svg id="StreetCar" xmlns="http://www.w3.org/2000/svg" viewBox="0 0 480 384"><title>StreetCar</title><path d="M440,336h32a8,8,0,0,0,8-8V232a8,8,0,0,0-.24-1.95l-24-96A8,8,0,0,0,448,128H317L303.2,100.43A8,8,0,0,0,296,96H259.31l34.35-34.34a8,8,0,0,0,0-11.32L259.31,16H408a8,8,0,0,0,0-16H72a8,8,0,0,0,0,16H220.69L186.34,50.34a8,8,0,0,0,0,11.32L220.69,96H184a8,8,0,0,0-7.16,4.43L163.05,128H32a8,8,0,0,0-7.76,6.05l-24,96A8,8,0,0,0,0,232v96a8,8,0,0,0,8,8H40a32,32,0,0,0,64,0h16a32,32,0,0,0,64,0H296a32,32,0,0,0,64,0h16a32,32,0,0,0,64,0ZM240,19.31,276.69,56,240,92.69,203.31,56ZM189,112h102.1l8,16H181ZM72,352a16,16,0,0,1-16-16H88A16,16,0,0,1,72,352Zm40-128H50.25l12-48H112Zm40,128a16,16,0,0,1-16-16h32A16,16,0,0,1,152,352Zm-24-32V176h64V320ZM272,176v48H208V176Zm-64,64h64v80H208Zm80,80V176h64V320ZM417.75,176l12,48H368V176ZM328,352a16,16,0,0,1-16-16h32A16,16,0,0,1,328,352Zm40-32V240h72a8,8,0,0,0,7.76-9.95l-16-64A8,8,0,0,0,424,160H56a8,8,0,0,0-7.76,6.05l-16,64A8,8,0,0,0,40,240h72v80H16V233l22.25-89h403.5L464,233v87Zm40,32a16,16,0,0,1-16-16h32A16,16,0,0,1,408,352ZM152,368H8a8,8,0,0,0,0,16H472a8,8,0,0,0,0-16Z"/></svg>