<svg id="Layer_1" data-name="Layer 1" xmlns="http://www.w3.org/2000/svg" viewBox="0 0 480 400"><title>Taxi</title><path d="M440,176h-1.75l-24.8-99.13A38.88,38.88,0,0,0,376,48H334.78l-4.19-25.15A27,27,0,0,0,304,0H176a27,27,0,0,0-26.59,22.84L145.22,48H104A38.85,38.85,0,0,0,66.54,76.87L41.75,176H40C10.07,176,0,220,0,240c0,26.63,22.14,112,48,112v40a8,8,0,0,0,8,8h96a8,8,0,0,0,8-8V352H320v40a8,8,0,0,0,8,8h96a8,8,0,0,0,8-8V352c25.86,0,48-85.37,48-112C480,220,469.93,176,440,176ZM165.2,25.47A10.93,10.93,0,0,1,176,16H304a10.94,10.94,0,0,1,10.8,9.48L318.55,48H161.45ZM82.05,80.8A22.72,22.72,0,0,1,104,64H376A22.72,22.72,0,0,1,398,80.8l23.8,95.2h-15.5L386,95a19.71,19.71,0,0,0-19.15-15H113.17A19.71,19.71,0,0,0,94,95L73.75,176H58.25ZM389.75,176H90.25l19.29-77.18A3.73,3.73,0,0,1,113.17,96H366.83a3.73,3.73,0,0,1,3.63,2.83ZM144,384H64V352h80Zm272,0H336V352h80Zm15.59-48H327.89L152.3,336c-.11,0-.19-.06-.3-.06H56c-.14,0-.26.07-.4.07h-7C39.15,332.43,16,273.18,16,240c0-13.66,7.14-48,24-48H440c16.86,0,24,34.34,24,48C464,273,441.17,331.61,431.59,336ZM96,216a48,48,0,1,0,48,48A48,48,0,0,0,96,216Zm0,80a32,32,0,1,1,32-32A32,32,0,0,1,96,296Zm288-80a48,48,0,1,0,48,48A48,48,0,0,0,384,216Zm0,80a32,32,0,1,1,32-32A32,32,0,0,1,384,296Zm-88-56H184a8,8,0,0,0,0,16H296a8,8,0,0,0,0-16Zm0,32H184a8,8,0,0,0,0,16H296a8,8,0,0,0,0-16Z"/></svg>