<svg id="Train" xmlns="http://www.w3.org/2000/svg" viewBox="0 0 480 304"><title>Train</title><path d="M472,288H8a8,8,0,0,0,0,16H472a8,8,0,0,0,0-16ZM112,256h16a32,32,0,0,0,64,0h80a32,32,0,0,0,64,0h16a32,32,0,0,0,64,0c0-.73-.15-1.43-.2-2.14,41.08-7.6,64.2-35.83,64.2-80.17C480,81.17,356.63,0,216,0H8A8,8,0,0,0,0,8V248a8,8,0,0,0,8,8H48a32,32,0,0,0,64,0ZM80,120H16V64H80ZM16,136H80v72H16Zm86.82,104H96V64h80V240ZM232,64a19.16,19.16,0,0,1,16.46,9.3L274.4,120H192V64ZM160,272a16,16,0,0,1-16-16h32A16,16,0,0,1,160,272Zm144,0a16,16,0,0,1-16-16h32A16,16,0,0,1,304,272Zm22.82-32H192V224H444.59A79.84,79.84,0,0,1,392,240ZM400,256a16,16,0,0,1-32,0h24c2.73,0,5.36-.13,8-.27Zm47.3-136H384.68a61.28,61.28,0,0,1-53.6-31.66L319,68.11a3.63,3.63,0,0,1,.17-3.39c.19-.33.49-.72.8-.72h68.8A186.85,186.85,0,0,1,447.3,120ZM216,16A337.42,337.42,0,0,1,359.86,48H320a16.91,16.91,0,0,0-14.63,8.61,19.57,19.57,0,0,0-.23,19.5l12.11,20.22A77.18,77.18,0,0,0,384.68,136h71.14A94.17,94.17,0,0,1,464,173.69a75.87,75.87,0,0,1-7.2,34.48,7.1,7.1,0,0,0-.8-.17H192V136h96a8,8,0,0,0,7-11.89L262.45,65.52A35.13,35.13,0,0,0,232,48H16V16ZM16,240V224H80v16Zm64,32a16,16,0,0,1-16-16H96A16,16,0,0,1,80,272Z"/></svg>